<?xml version="1.0" encoding="UTF-8"?>
<!DOCTYPE svg PUBLIC "-//W3C//DTD SVG 1.1//EN" "http://www.w3.org/Graphics/SVG/1.1/DTD/svg11.dtd">
<svg xmlns="http://www.w3.org/2000/svg" version="1.1" width="526px" height="456px" style="shape-rendering:geometricPrecision; text-rendering:geometricPrecision; image-rendering:optimizeQuality; fill-rule:evenodd; clip-rule:evenodd" xmlns:xlink="http://www.w3.org/1999/xlink">
<g><path style="opacity:0.997" fill="#60d6ce" d="M 258.5,22.5 C 344.332,19.5293 408.499,54.8626 451,128.5C 480.947,190.074 480.947,251.741 451,313.5C 412.637,381.208 354.303,416.875 276,420.5C 186.58,417.165 123.913,374.831 88,293.5C 73.263,250.725 71.5964,207.392 83,163.5C 104.569,99.2661 147.069,55.4328 210.5,32C 226.362,27.4162 242.362,24.2495 258.5,22.5 Z"/></g>
<g><path style="opacity:1" fill="#fdfefe" d="M 259.5,109.5 C 280.474,106.883 300.141,110.717 318.5,121C 336.573,134.33 343.74,152.163 340,174.5C 337.503,187.993 331.003,199.159 320.5,208C 309.871,215.905 299.704,224.405 290,233.5C 285.594,241.186 283.594,249.52 284,258.5C 283.5,259.667 282.667,260.5 281.5,261C 272.5,261.667 263.5,261.667 254.5,261C 249.761,245.027 252.595,230.527 263,217.5C 275.333,206.5 287.667,195.5 300,184.5C 309.598,167.682 306.765,153.515 291.5,142C 274.193,134.025 258.693,136.525 245,149.5C 241.587,154.661 239.587,160.327 239,166.5C 238.215,168.286 237.049,169.786 235.5,171C 226.936,172.607 218.27,172.94 209.5,172C 208.667,171.167 207.833,170.333 207,169.5C 206.375,141.112 219.541,122.278 246.5,113C 251.077,112.275 255.41,111.108 259.5,109.5 Z"/></g>
<g><path style="opacity:1" fill="#fdfefe" d="M 262.5,286.5 C 272.964,285.071 282.13,287.737 290,294.5C 297.716,305.951 296.883,316.784 287.5,327C 275.833,334.333 264.167,334.333 252.5,327C 249.894,325.062 248.061,322.562 247,319.5C 242.003,303.5 247.17,292.5 262.5,286.5 Z"/></g>
</svg>
